<svg xmlns="http://www.w3.org/2000/svg" viewBox="0 0 1096.07 795.05" xmlns:v="https://vecta.io/nano"><style>.G{isolation:isolate}</style><defs><linearGradient id="A" x1="2622.36" y1="1900.96" x2="2723.36" y2="1900.96" gradientTransform="translate(998.56 3791.59) rotate(-60.37) scale(1 -.89)" href="#E"><stop offset=".02" stop-color="#333"/><stop offset=".12" stop-color="#1f1f1f"/><stop offset=".25"/><stop offset=".44"/><stop offset=".48" stop-color="#050505"/><stop offset=".52" stop-color="#161616"/><stop offset=".57" stop-color="#313131"/><stop offset=".63" stop-color="#575757"/><stop offset=".68" stop-color="gray"/><stop offset=".91"/></linearGradient><linearGradient id="B" x1="1214.78" y1="2461.73" x2="1268.18" y2="2499.11" gradientTransform="translate(421.66 3255.68) rotate(-22.97) scale(1 -1)" href="#E"><stop offset=".02" stop-color="#4d4d4d"/><stop offset=".16" stop-color="gray"/><stop offset=".33"/><stop offset=".52"/><stop offset=".65" stop-color="#b3b3b3"/><stop offset=".74" stop-color="#fff"/><stop offset=".94" stop-color="#4d4d4d"/></linearGradient><linearGradient id="C" x1="6.63" y1="513.58" x2="618.33" y2="513.58" gradientTransform="translate(-24.35 812.67) rotate(3.26) scale(1 -1)" href="#E"><stop offset="0" stop-color="#666"/><stop offset=".24" stop-color="#9c9c9c"/><stop offset=".36" stop-color="#b3b3b3"/><stop offset=".75" stop-color="#666"/><stop offset="1" stop-color="gray"/></linearGradient><linearGradient id="D" x1="52.8" y1="333.5" x2="570.98" y2="696.33" gradientTransform="translate(-24.35 812.67) rotate(3.26) scale(1 -1)" href="#E"><stop offset="0" stop-color="#999"/><stop offset=".11" stop-color="gray"/><stop offset=".29" stop-color="#f2f2f2"/><stop offset=".4" stop-color="#999"/><stop offset=".69" stop-color="#b3b3b3"/><stop offset=".84" stop-color="#f2f2f2"/><stop offset="1" stop-color="gray"/></linearGradient><linearGradient id="E" gradientUnits="userSpaceOnUse"/></defs><ellipse cx="314.36" cy="320.6" rx="314.21" ry="300" fill="#f9f9f9"/><path d="M1089.1,710.04c-1.05-.59-2.18-.98-3.38-1.2-.84-.91-1.81-1.69-2.91-2.3l-437.92-243.98c-.87-.48-1.78-.84-2.73-1.09-5.57,18.88-23.15,44.39-23.15,44.39-14.13,22.4-22.53,31.4-27.45,34.71,1.16,2.4,2.87,4.33,5.11,5.58l437.92,243.98c1.1.61,2.27,1.03,3.5,1.27.81.9,1.74,1.65,2.79,2.23,10.83,6.03,30.41-7.78,43.72-30.86,13.32-23.08,15.33-46.68,4.5-52.72h0Z" fill="url(#A)"/><path d="M642.15,461.46c-8.52-2.24-19.99,4.66-26.98,16.78l-20.07,34.78c-5.76,9.98-6.86,20.69-3.55,27.53,4.92-3.31,19.88-9,36.03-32.88,0,0,16.44-25.39,14.56-46.22h0Z"/><path d="M626.3,469.22c-.66-.54-1.43-.87-2.3-1.02-.2-.34-.46-.62-.78-.83l-27.85-17.84c-1.51-.97-2.54-4.63-3.87-2.48l-25.71,45.38c-1.33,2.15-8.22,8.48-6.71,9.45l30.62,19.62c.36.23.76.34,1.18.37,5.7,2.42,17.1-5.6,26.52-18.99,10.09-14.35,14.08-29.41,8.89-33.65h.01Z" fill="url(#B)"/><path d="M62.12 148.46C-31.34 289.13 6.93 478.94 147.6 572.4s330.48 55.19 423.94-85.48 55.19-330.48-85.48-423.94C345.39-30.49 155.59 7.79 62.12 148.46zm502.25 333.7c-90.83 136.71-275.29 173.91-412 83.07-136.71-90.83-173.9-275.29-83.07-412s275.29-173.91 412-83.08 173.9 275.29 83.07 412h0z" fill="url(#C)"/><path d="M203.76 20.79C40.55 82.95-41.37 265.66 20.79 428.87S265.65 674 428.87 611.84C592.08 549.68 674 366.98 611.84 203.76 549.68 40.55 366.97-41.37 203.76 20.79zM424.58 600.6c-157 59.8-332.75-19.01-392.55-176.01C-27.76 267.58 51.04 91.83 208.04 32.04c157-59.8 332.75 19.01 392.55 176.01S581.58 540.8 424.58 600.6h0z" fill="url(#D)"/><path class="G" d="M604.516 536.071l3.343-6.036 459.439 254.462-3.343 6.036z" fill="#b3b3b3" opacity=".08"/></svg>