<svg id="Layer_1" data-name="Layer 1" xmlns="http://www.w3.org/2000/svg" viewBox="0 0 2000 2000"><defs><style>.cls-1{fill:#e54a1b;}.cls-2{fill:#fff;}</style></defs><path class="cls-1" d="M540.46,1066.19a40.94,40.94,0,0,1-40.17,40.67c-21.72.44-40.32-16.29-40.13-38.51.2-23.42-8.36-42.17-24.77-58q-8.65-8.34-17.31-16.67C404.35,980.5,387.9,975,369,974.94c-23.07-.05-39.27-15.17-40.59-38.08a39.63,39.63,0,0,1,32.67-41.59c25.88-4.73,47.65,13.11,47.61,39.44,0,20.08,6.26,37.18,20.27,51.37,8.21,8.33,16.58,16.54,25.21,24.43,13.12,12,29.1,15.63,46.48,15.75C523.41,1026.41,540.45,1043.86,540.46,1066.19Z"/><circle class="cls-1" cx="369.01" cy="1066.13" r="40.7"/><circle class="cls-1" cx="500.02" cy="934.98" r="40.47"/><path class="cls-2" d="M662.28,897.86V930.3q20.51-35.81,65.64-35.8,34.68,0,57.24,23.12t22.56,64.52v121.19H765.58V988.48q0-27.6-13.8-42.33t-37.66-14.73q-23.88,0-37.85,14.73t-14,42.33v114.85H619.77V897.86Z"/><path class="cls-2" d="M948.3,1106.69q-44.74,0-72.71-29.09t-28-77.19q0-48.1,28.34-77t73.28-28.9q44.93,0,72.9,27.78t28,72.53a128.08,128.08,0,0,1-1.49,20.14H891.25q1.49,25.74,17.34,40.84t39.71,15.1q34.69,0,48.86-28.72H1043a92.16,92.16,0,0,1-33.94,46.43Q984.47,1106.69,948.3,1106.69ZM989,945.4q-16.41-15.1-39.9-15.1t-39.34,15.1q-15.86,15.11-18.09,40.46h114.11Q1005.36,960.51,989,945.4Z"/><path class="cls-2" d="M1246.26,897.86l-66.38,101.43,66.38,104h-48.1l-44.38-69.73L1112,1103.33h-44.38L1134,1002.27l-66.38-104.41h48.11l44.38,69.73,41.77-69.73Z"/><path class="cls-2" d="M1421.53,897.86H1464v205.47h-42.51v-32.44q-20.13,35.43-65.63,35.43-34.68,0-57.24-22.94t-22.57-64.33V897.86h42.14v114.85q0,27.61,13.8,42.33t37.67,14.73q23.85,0,37.85-14.73t14-42.33Z"/><path class="cls-2" d="M1510.65,956.78q0-26.1,22-44.19t57.8-18.09q35.79,0,56.87,17.71t22.56,48.3h-43.63q-1.12-15.3-10.63-23.87T1589,928.06q-17.16,0-26.85,7.65a24.39,24.39,0,0,0-9.7,20.13q0,12.51,12.31,19.58t30,10.44q17.7,3.36,35.42,8.21a64.14,64.14,0,0,1,30,17.71q12.32,12.87,12.31,34.5,0,26.85-22.56,43.63t-58,16.78q-35.43,0-57.43-17.15t-24.24-48.86h44q1.13,15.3,11.19,23.87t27.41,8.58q17.34,0,27.6-7.65a24.11,24.11,0,0,0,10.25-20.32q0-12.67-12.3-19.77t-30-10.62q-17.72-3.54-35.43-8.21a64.83,64.83,0,0,1-30-17Q1510.66,977.29,1510.65,956.78Z"/></svg>